<svg width="188" height="58" viewBox="0 0 188 58" fill="none" xmlns="http://www.w3.org/2000/svg">
<g clip-path="url(#clip0_4280_3074)">
<path d="M29.0008 55.2125C43.4771 55.2125 55.2125 43.4771 55.2125 29.0008C55.2125 14.5245 43.4771 2.78906 29.0008 2.78906C14.5245 2.78906 2.78906 14.5245 2.78906 29.0008C2.78906 43.4771 14.5245 55.2125 29.0008 55.2125Z" fill="#0C0C1C"/>
<path d="M28.9989 8.10111e-08C23.2635 8.10111e-08 17.6568 1.70076 12.888 4.8872C8.11915 8.07364 4.40228 12.6027 2.20742 17.9015C0.0125651 23.2004 -0.561711 29.0311 0.557219 34.6563C1.67615 40.2816 4.43803 45.4487 8.4936 49.5042C12.5492 53.5598 17.7163 56.3217 23.3415 57.4406C28.9668 58.5596 34.7975 57.9853 40.0963 55.7904C45.3952 53.5956 49.9242 49.8787 53.1107 45.1099C56.2971 40.341 57.9978 34.7344 57.9978 28.9989C57.9981 25.1906 57.2482 21.4196 55.791 17.9012C54.3338 14.3827 52.1978 11.1858 49.5049 8.49295C46.812 5.8001 43.6151 3.66406 40.0967 2.20683C36.5782 0.7496 32.8072 -0.000284575 28.9989 8.10111e-08ZM28.9989 55.2106C23.8147 55.2106 18.747 53.6734 14.4365 50.7932C10.126 47.913 6.76636 43.8193 4.78245 39.0297C2.79855 34.2401 2.27947 28.9698 3.29086 23.8853C4.30224 18.8007 6.79867 14.1302 10.4644 10.4644C14.1302 6.79865 18.8007 4.30223 23.8853 3.29084C28.9699 2.27946 34.2402 2.79854 39.0297 4.78244C43.8193 6.76634 47.913 10.126 50.7932 14.4365C53.6734 18.747 55.2107 23.8147 55.2107 28.9989C55.2107 35.9507 52.4491 42.6178 47.5334 47.5334C42.6178 52.4491 35.9507 55.2106 28.9989 55.2106Z" fill="#D5F036"/>
<path d="M30.9492 5.37835L36.9375 18.2978L51.075 20.0013C51.4511 20.0469 51.8064 20.199 52.0989 20.4398C52.3914 20.6806 52.6091 20.9999 52.7261 21.3602C52.8432 21.7205 52.8548 22.1068 52.7597 22.4735C52.6645 22.8403 52.4665 23.1721 52.189 23.4301L41.7533 33.118L44.5015 47.0887C44.5746 47.4606 44.5399 47.8456 44.4013 48.1985C44.2628 48.5513 44.0263 48.8571 43.7196 49.0799C43.413 49.3027 43.049 49.4332 42.6707 49.4559C42.2924 49.4787 41.9154 49.3928 41.5843 49.2083L29.1459 42.2729L16.7076 49.2083C16.3765 49.3928 15.9995 49.4787 15.6212 49.4559C15.2428 49.4332 14.8789 49.3027 14.5723 49.0799C14.2656 48.8571 14.0291 48.5513 13.8906 48.1985C13.752 47.8456 13.7173 47.4606 13.7904 47.0887L16.5386 33.118L6.10286 23.4301C5.8253 23.172 5.62733 22.8399 5.53228 22.4731C5.43722 22.1062 5.44905 21.7198 5.56636 21.3594C5.68368 20.999 5.9016 20.6797 6.19442 20.4391C6.48724 20.1984 6.84274 20.0466 7.21903 20.0013L21.3544 18.2978L27.3427 5.37835C27.5021 5.03437 27.7566 4.74316 28.0761 4.53908C28.3956 4.335 28.7668 4.22656 29.1459 4.22656C29.5251 4.22656 29.8963 4.335 30.2158 4.53908C30.5353 4.74316 30.7898 5.03437 30.9492 5.37835Z" fill="#4646B5"/>
<path d="M36.9375 18.2969L38.6237 21.4742L38.1664 18.4464L36.9375 18.2969Z" fill="#0C0C1C"/>
<path d="M29.1433 42.2792L25.5 39.7109L28.0748 42.8731L29.1433 42.2792Z" fill="#0C0C1C"/>
<path d="M41.7557 33.1172L38.7734 35.614L42.0006 34.3656L41.7557 33.1172Z" fill="#0C0C1C"/>
<path d="M16.5364 33.1132L17.5941 28.7266L15.5156 32.1661L16.5364 33.1132Z" fill="#0C0C1C"/>
<path d="M21.3516 18.2937L25.0512 18.103L21.8674 17.1797L21.3516 18.2937Z" fill="#0C0C1C"/>
<path d="M30.3028 11.7705L34.5725 20.9816L44.6528 22.1953C44.8941 22.2241 45.1222 22.3213 45.31 22.4756C45.4978 22.6299 45.6375 22.8348 45.7125 23.066C45.7875 23.2972 45.7947 23.5451 45.7333 23.7802C45.6718 24.0154 45.5443 24.2281 45.3658 24.393L37.9254 31.3003L39.876 41.27C39.9229 41.5082 39.9006 41.7548 39.8119 41.9808C39.7232 42.2068 39.5717 42.4026 39.3753 42.5453C39.1789 42.6879 38.9457 42.7714 38.7034 42.7858C38.4611 42.8003 38.2197 42.7451 38.0077 42.6268L29.139 37.6853L20.2703 42.6268C20.0583 42.7451 19.8169 42.8003 19.5746 42.7858C19.3322 42.7714 19.0991 42.6879 18.9027 42.5453C18.7063 42.4026 18.5548 42.2068 18.466 41.9808C18.3773 41.7548 18.3551 41.5082 18.402 41.27L20.3526 31.3003L12.9295 24.393C12.7519 24.2277 12.6251 24.015 12.5642 23.7801C12.5033 23.5452 12.5108 23.2978 12.5856 23.0669C12.6605 22.8361 12.7998 22.6314 12.987 22.477C13.1743 22.3226 13.4017 22.2249 13.6426 22.1953L23.7228 20.9816L27.9925 11.7705C28.0943 11.5498 28.2572 11.3629 28.4619 11.2319C28.6666 11.1009 28.9046 11.0313 29.1477 11.0312C29.3907 11.0312 29.6287 11.1009 29.8334 11.2319C30.0381 11.3629 30.201 11.5498 30.3028 11.7705Z" fill="#D5F036"/>
<path d="M30.3028 11.7705L34.5725 20.9816L44.6528 22.1953C44.8941 22.2241 45.1222 22.3213 45.31 22.4756C45.4978 22.6299 45.6375 22.8348 45.7125 23.066C45.7875 23.2972 45.7947 23.5451 45.7333 23.7802C45.6718 24.0154 45.5443 24.2281 45.3658 24.393L37.9254 31.3003L39.876 41.27C39.9229 41.5082 39.9006 41.7548 39.8119 41.9808C39.7232 42.2068 39.5717 42.4026 39.3753 42.5453C39.1789 42.6879 38.9457 42.7714 38.7034 42.7858C38.4611 42.8003 38.2197 42.7451 38.0077 42.6268L29.139 37.6853L20.2703 42.6268C20.0583 42.7451 19.8169 42.8003 19.5746 42.7858C19.3322 42.7714 19.0991 42.6879 18.9027 42.5453C18.7063 42.4026 18.5548 42.2068 18.466 41.9808C18.3773 41.7548 18.3551 41.5082 18.402 41.27L20.3526 31.3003L12.9295 24.393C12.7519 24.2277 12.6251 24.015 12.5642 23.7801C12.5033 23.5452 12.5108 23.2978 12.5856 23.0669C12.6605 22.8361 12.7998 22.6314 12.987 22.477C13.1743 22.3226 13.4017 22.2249 13.6426 22.1953L23.7228 20.9816L27.9925 11.7705C28.0943 11.5498 28.2572 11.3629 28.4619 11.2319C28.6666 11.1009 28.9046 11.0313 29.1477 11.0312C29.3907 11.0312 29.6287 11.1009 29.8334 11.2319C30.0381 11.3629 30.201 11.5498 30.3028 11.7705Z" fill="#D5F036"/>
<path d="M41.1542 12.7385L41.4186 13.2414C41.4357 13.2737 41.4622 13.3001 41.4945 13.3172L42.0038 13.5816C42.0328 13.5972 42.057 13.6203 42.0739 13.6486C42.0908 13.6768 42.0997 13.7091 42.0997 13.742C42.0997 13.7749 42.0908 13.8072 42.0739 13.8355C42.057 13.8637 42.0328 13.8868 42.0038 13.9024L41.501 14.1668C41.4687 14.1839 41.4422 14.2103 41.4251 14.2427L41.1607 14.7455C41.1457 14.7751 41.1227 14.8 41.0944 14.8174C41.0661 14.8347 41.0335 14.8439 41.0003 14.8439C40.9671 14.8439 40.9346 14.8347 40.9062 14.8174C40.8779 14.8 40.855 14.7751 40.84 14.7455L40.5755 14.2427C40.5584 14.2103 40.532 14.1839 40.4997 14.1668L39.9969 13.9024C39.9672 13.8874 39.9424 13.8644 39.925 13.8361C39.9076 13.8078 39.8984 13.7752 39.8984 13.742C39.8984 13.7088 39.9076 13.6762 39.925 13.6479C39.9424 13.6196 39.9672 13.5967 39.9969 13.5816L40.4997 13.3172C40.532 13.3001 40.5584 13.2737 40.5755 13.2414L40.84 12.7385C40.856 12.7111 40.879 12.6884 40.9065 12.6726C40.9341 12.6568 40.9653 12.6484 40.9971 12.6484C41.0289 12.6484 41.0601 12.6568 41.0877 12.6726C41.1152 12.6884 41.1382 12.7111 41.1542 12.7385Z" fill="#4646B5"/>
<path d="M29.2892 47.0708L29.5536 47.5736C29.5707 47.6059 29.5971 47.6323 29.6295 47.6494L30.1323 47.9138C30.1613 47.9294 30.1855 47.9526 30.2024 47.9808C30.2193 48.009 30.2282 48.0413 30.2282 48.0742C30.2282 48.1071 30.2193 48.1394 30.2024 48.1677C30.1855 48.1959 30.1613 48.219 30.1323 48.2346L29.6295 48.499C29.5971 48.5161 29.5707 48.5426 29.5536 48.5749L29.2892 49.0777C29.2742 49.1073 29.2512 49.1322 29.2229 49.1496C29.1946 49.1669 29.162 49.1761 29.1288 49.1761C29.0956 49.1761 29.063 49.1669 29.0347 49.1496C29.0064 49.1322 28.9835 49.1073 28.9684 49.0777L28.704 48.5749C28.6869 48.5426 28.6605 48.5161 28.6282 48.499L28.1297 48.2303C28.1001 48.2152 28.0752 48.1923 28.0578 48.164C28.0404 48.1357 28.0312 48.1031 28.0312 48.0699C28.0313 48.0367 28.0404 48.0041 28.0578 47.9758C28.0752 47.9475 28.1001 47.9246 28.1297 47.9095L28.6325 47.6451C28.6648 47.628 28.6913 47.6016 28.7083 47.5692L28.9728 47.0664C28.989 47.0387 29.0124 47.0158 29.0404 47C29.0684 46.9842 29.1001 46.9761 29.1322 46.9766C29.1644 46.977 29.1958 46.986 29.2234 47.0025C29.251 47.019 29.2737 47.0426 29.2892 47.0708Z" fill="#4646B5"/>
<path d="M17.5403 12.0574L17.9001 12.738C17.9223 12.7819 17.958 12.8176 18.0019 12.8398L18.6825 13.1996C18.722 13.2204 18.755 13.2516 18.7781 13.2898C18.8011 13.328 18.8133 13.3717 18.8133 13.4164C18.8133 13.461 18.8011 13.5047 18.7781 13.5429C18.755 13.5811 18.722 13.6123 18.6825 13.6331L18.0019 13.9929C17.9583 14.0165 17.9228 14.0528 17.9001 14.0969L17.5403 14.7774C17.5195 14.8169 17.4883 14.85 17.4501 14.873C17.4119 14.8961 17.3682 14.9083 17.3235 14.9083C17.2789 14.9083 17.2352 14.8961 17.197 14.873C17.1588 14.85 17.1276 14.8169 17.1068 14.7774L16.747 14.0969C16.7249 14.0531 16.6902 14.0169 16.6473 13.9929L15.9668 13.6353C15.9273 13.6145 15.8943 13.5833 15.8712 13.5451C15.8481 13.5069 15.8359 13.4631 15.8359 13.4185C15.8359 13.3739 15.8481 13.3301 15.8712 13.2919C15.8943 13.2537 15.9273 13.2226 15.9668 13.2018L16.6473 12.842C16.6912 12.8197 16.7269 12.7841 16.7492 12.7401L17.109 12.0596C17.1298 12.0206 17.1607 11.9879 17.1986 11.965C17.2364 11.9421 17.2798 11.9299 17.324 11.9297C17.3682 11.9295 17.4117 11.9412 17.4498 11.9637C17.4878 11.9862 17.5191 12.0186 17.5403 12.0574Z" fill="#4646B5"/>
<path d="M48.3078 32.5669L48.6654 33.2474C48.6889 33.291 48.7242 33.3271 48.7673 33.3514L49.4478 33.7091C49.4867 33.7303 49.5192 33.7617 49.5418 33.7998C49.5644 33.838 49.5763 33.8815 49.5763 33.9258C49.5763 33.9701 49.5644 34.0136 49.5418 34.0518C49.5192 34.0899 49.4867 34.1212 49.4478 34.1425L48.7673 34.5001C48.7238 34.523 48.6883 34.5585 48.6654 34.602L48.3078 35.2825C48.2865 35.3214 48.2552 35.3539 48.2171 35.3765C48.1789 35.3991 48.1354 35.411 48.0911 35.411C48.0468 35.411 48.0033 35.3991 47.9651 35.3765C47.927 35.3539 47.8956 35.3214 47.8744 35.2825L47.5167 34.602C47.4937 34.5579 47.4573 34.5223 47.4127 34.5001L46.73 34.1447C46.6911 34.1234 46.6587 34.0921 46.6361 34.0539C46.6135 34.0158 46.6016 33.9723 46.6016 33.928C46.6016 33.8836 46.6135 33.8401 46.6361 33.802C46.6587 33.7639 46.6911 33.7325 46.73 33.7112L47.4105 33.3536C47.4547 33.33 47.4909 33.2938 47.5146 33.2496L47.8722 32.569C47.8931 32.5295 47.9243 32.4964 47.9626 32.4732C48.0008 32.4501 48.0446 32.4377 48.0894 32.4375C48.1341 32.4373 48.178 32.4492 48.2165 32.472C48.255 32.4948 48.2865 32.5276 48.3078 32.5669Z" fill="#4646B5"/>
<path d="M10.0035 34.8848L10.2008 35.2598C10.214 35.2842 10.2344 35.3039 10.2593 35.3161L10.6342 35.5134C10.656 35.5251 10.6741 35.5424 10.6868 35.5636C10.6995 35.5848 10.7062 35.609 10.7062 35.6337C10.7062 35.6583 10.6995 35.6826 10.6868 35.7037C10.6741 35.7249 10.656 35.7423 10.6342 35.7539L10.2593 35.9512C10.2344 35.9635 10.214 35.9832 10.2008 36.0075L10.0035 36.3825C9.99218 36.4043 9.97507 36.4226 9.95405 36.4353C9.93303 36.4481 9.90891 36.4548 9.88433 36.4548C9.85974 36.4548 9.83563 36.4481 9.81461 36.4353C9.79359 36.4226 9.77647 36.4043 9.76512 36.3825L9.56573 36.0075C9.55343 35.9832 9.53369 35.9635 9.50938 35.9512L9.13443 35.7539C9.11269 35.7423 9.09452 35.7249 9.08185 35.7037C9.06919 35.6826 9.0625 35.6583 9.0625 35.6337C9.0625 35.609 9.06919 35.5848 9.08185 35.5636C9.09452 35.5424 9.11269 35.5251 9.13443 35.5134L9.50938 35.3161C9.53369 35.3038 9.55343 35.2841 9.56573 35.2598L9.76512 34.8848C9.77647 34.863 9.79359 34.8448 9.81461 34.832C9.83563 34.8192 9.85974 34.8125 9.88433 34.8125C9.90891 34.8125 9.93303 34.8192 9.95405 34.832C9.97507 34.8448 9.99218 34.863 10.0035 34.8848Z" fill="#4646B5"/>
<path d="M20.2122 32.0878L18.4068 41.2643C18.3599 41.5024 18.3821 41.7491 18.4708 41.975C18.5595 42.201 18.711 42.3969 18.9075 42.5395C19.1039 42.6821 19.337 42.7656 19.5793 42.7801C19.8217 42.7945 20.0631 42.7393 20.275 42.621L29.1438 37.6795L38.0125 42.621C38.2245 42.7393 38.4659 42.7945 38.7082 42.7801C38.9505 42.7656 39.1836 42.6821 39.3801 42.5395C39.5765 42.3969 39.728 42.201 39.8167 41.975C39.9054 41.7491 39.9276 41.5024 39.8807 41.2643L37.9301 31.2945L45.3619 24.3959C45.4982 24.2688 45.6048 24.1132 45.6743 23.9403C45.7438 23.7674 45.7745 23.5813 45.7641 23.3953C45.7538 23.2092 45.7027 23.0277 45.6145 22.8635C45.5263 22.6994 45.403 22.5566 45.2535 22.4453C41.8443 24.8294 38.3376 27.0574 34.5643 28.7934C30.0822 30.8524 25.1277 32.1853 20.2122 32.0878Z" fill="#D5F036"/>
<path d="M33.9548 30.4013C33.9548 32.5556 32.3336 34.5192 28.6968 34.5192C27.3993 34.5258 26.113 34.2785 24.9105 33.791C24.7913 33.7398 24.6837 33.665 24.5941 33.5711C24.5046 33.4772 24.4349 33.3662 24.3894 33.2448C24.3438 33.1233 24.3233 32.9939 24.3291 32.8643C24.3348 32.7347 24.3667 32.6076 24.4228 32.4906L24.8108 31.6757C24.9169 31.4504 25.1067 31.2754 25.3399 31.188C25.573 31.1006 25.8311 31.1076 26.0592 31.2075C26.8552 31.569 27.7186 31.758 28.5928 31.7624C29.748 31.7624 30.5239 31.2964 30.5239 30.488C30.5239 29.7446 30.0232 29.2634 28.1788 29.2634H25.9616C25.8284 29.2633 25.6966 29.2355 25.5747 29.1819C25.4527 29.1282 25.3433 29.0497 25.2532 28.9515C25.1631 28.8533 25.0945 28.7375 25.0515 28.6114C25.0086 28.4852 24.9923 28.3515 25.0037 28.2188L25.4371 23.0909C25.4577 22.8509 25.5676 22.6275 25.7449 22.4645C25.9223 22.3016 26.1543 22.2111 26.3951 22.2109H32.2469C32.5017 22.2115 32.7459 22.3132 32.9259 22.4936C33.1059 22.674 33.207 22.9184 33.207 23.1732V23.8885C33.207 24.1431 33.1059 24.3873 32.9258 24.5674C32.7458 24.7474 32.5015 24.8486 32.2469 24.8486H28.3457L28.1897 26.6085H28.9959C32.559 26.6085 33.9548 28.2621 33.9548 30.4013Z" fill="#0C0C1C"/>
<path d="M33.9555 29.9729C33.9555 32.1402 32.3344 34.0908 28.6976 34.0908C27.3999 34.0985 26.1134 33.8511 24.9112 33.3626C24.7919 33.3116 24.684 33.237 24.5943 33.1432C24.5046 33.0493 24.4348 32.9383 24.3893 32.8167C24.3437 32.6952 24.3232 32.5656 24.3291 32.436C24.335 32.3063 24.3672 32.1791 24.4236 32.0622L24.8115 31.2495C24.9168 31.0234 25.1066 30.8477 25.34 30.7602C25.5735 30.6726 25.832 30.6802 26.0599 30.7813C26.8563 31.1413 27.7197 31.3289 28.5935 31.3318C29.7487 31.3318 30.5246 30.8659 30.5246 30.0553C30.5246 29.314 30.024 28.8307 28.1796 28.8307H25.9624C25.8293 28.8309 25.6975 28.8034 25.5756 28.75C25.4536 28.6965 25.3441 28.6183 25.2541 28.5202C25.164 28.4222 25.0953 28.3065 25.0523 28.1805C25.0093 28.0545 24.993 27.9209 25.0044 27.7882L25.4379 22.6582C25.4611 22.4202 25.572 22.1993 25.7491 22.0387C25.9262 21.878 26.1568 21.789 26.3959 21.7891H32.2477C32.5023 21.7891 32.7465 21.8902 32.9266 22.0703C33.1066 22.2503 33.2078 22.4945 33.2078 22.7492V23.4644C33.2078 23.7193 33.1067 23.9637 32.9267 24.1441C32.7467 24.3245 32.5025 24.4261 32.2477 24.4267H28.3465L28.1904 26.1844H28.9967C32.5598 26.1801 33.9555 27.8359 33.9555 29.9729Z" fill="#4646B5"/>
<path d="M20.3655 29.9035L12.9251 22.9962C12.8498 22.9246 12.7829 22.8446 12.7257 22.7578C12.5596 23.0092 12.4884 23.3115 12.525 23.6105C12.5615 23.9096 12.7034 24.1858 12.9251 24.3898L20.3655 31.2971V29.9035Z" fill="#0C0C1C"/>
<path d="M39.768 40.6853C39.6909 40.8385 39.5836 40.9746 39.4525 41.0853C39.3215 41.1961 39.1694 41.2791 39.0054 41.3295C38.8414 41.38 38.6689 41.3967 38.4982 41.3787C38.3276 41.3607 38.1624 41.3084 38.0125 41.2249L29.1438 36.2812L20.275 41.2249C20.1251 41.3084 19.9599 41.3607 19.7893 41.3787C19.6187 41.3967 19.4461 41.38 19.2822 41.3295C19.1182 41.2791 18.966 41.1961 18.835 41.0853C18.7039 40.9746 18.5966 40.8385 18.5195 40.6853L18.4068 41.2596C18.3599 41.4978 18.3821 41.7444 18.4708 41.9704C18.5595 42.1963 18.711 42.3922 18.9075 42.5348C19.1039 42.6775 19.337 42.761 19.5793 42.7754C19.8217 42.7898 20.0631 42.7347 20.275 42.6164L29.1438 37.6748L38.0125 42.6164C38.2245 42.7347 38.4659 42.7898 38.7082 42.7754C38.9505 42.761 39.1836 42.6775 39.38 42.5348C39.5765 42.3922 39.728 42.1963 39.8167 41.9704C39.9054 41.7444 39.9276 41.4978 39.8807 41.2596L39.768 40.6853Z" fill="#0C0C1C"/>
<path d="M45.3623 22.9962L37.9219 29.9035V31.2971L45.3623 24.3898C45.584 24.1858 45.7259 23.9096 45.7624 23.6105C45.7989 23.3115 45.7278 23.0092 45.5617 22.7578C45.5052 22.8451 45.4382 22.9251 45.3623 22.9962Z" fill="#0C0C1C"/>
</g>
<path d="M79.176 29.799C78.2867 29.799 77.4318 29.661 76.6115 29.385C75.7988 29.1013 75.0858 28.6988 74.4725 28.1775C73.8592 27.6485 73.4183 27.016 73.15 26.28L75.7835 25.314C75.8908 25.6207 76.1093 25.9005 76.439 26.1535C76.7687 26.4065 77.1712 26.6097 77.6465 26.763C78.1218 26.9163 78.6317 26.993 79.176 26.993C79.7357 26.993 80.257 26.9087 80.74 26.74C81.2307 26.5637 81.6255 26.3222 81.9245 26.0155C82.2235 25.7012 82.373 25.337 82.373 24.923C82.373 24.5013 82.2158 24.1563 81.9015 23.888C81.5872 23.612 81.1847 23.3935 80.694 23.2325C80.2033 23.0715 79.6973 22.9488 79.176 22.8645C78.0337 22.6882 77.0102 22.416 76.1055 22.048C75.2008 21.68 74.484 21.1702 73.955 20.5185C73.4337 19.8668 73.173 19.0235 73.173 17.9885C73.173 17.0148 73.4528 16.1638 74.0125 15.4355C74.5722 14.7072 75.3082 14.1398 76.2205 13.7335C77.1328 13.3272 78.118 13.124 79.176 13.124C80.0577 13.124 80.9087 13.262 81.729 13.538C82.5493 13.814 83.2662 14.2165 83.8795 14.7455C84.5005 15.2745 84.9452 15.9108 85.2135 16.6545L82.5685 17.609C82.4612 17.3023 82.2427 17.0225 81.913 16.7695C81.5833 16.5165 81.1808 16.3172 80.7055 16.1715C80.2302 16.0182 79.7203 15.9415 79.176 15.9415C78.6317 15.9338 78.1142 16.022 77.6235 16.206C77.1405 16.3823 76.7457 16.6238 76.439 16.9305C76.1323 17.2372 75.979 17.5898 75.979 17.9885C75.979 18.5022 76.1208 18.8893 76.4045 19.15C76.6958 19.4107 77.083 19.6023 77.566 19.725C78.049 19.84 78.5857 19.9473 79.176 20.047C80.2493 20.2157 81.2422 20.4993 82.1545 20.898C83.0668 21.2967 83.799 21.8295 84.351 22.4965C84.903 23.1558 85.179 23.9647 85.179 24.923C85.179 25.8967 84.903 26.7515 84.351 27.4875C83.799 28.2158 83.0668 28.7832 82.1545 29.1895C81.2422 29.5958 80.2493 29.799 79.176 29.799ZM93.627 20.806H91.396V29.5H88.59V20.806H86.888V18H88.59V14.389H91.396V18H93.627V20.806ZM104.108 18H106.914V29.5H104.108L103.981 28.074C103.667 28.5877 103.249 29.0055 102.728 29.3275C102.214 29.6418 101.604 29.799 100.899 29.799C100.048 29.799 99.2508 29.638 98.5071 29.316C97.7635 28.994 97.108 28.5493 96.5406 27.982C95.981 27.4147 95.5401 26.7592 95.2181 26.0155C94.9038 25.2718 94.7466 24.4745 94.7466 23.6235C94.7466 22.8032 94.8961 22.0327 95.1951 21.312C95.5018 20.5913 95.9273 19.9588 96.4716 19.4145C97.016 18.8702 97.6446 18.4447 98.3576 18.138C99.0706 17.8313 99.8373 17.678 100.658 17.678C101.417 17.678 102.095 17.8467 102.693 18.184C103.299 18.5213 103.812 18.9507 104.234 19.472L104.108 18ZM100.83 27.0965C101.428 27.0965 101.957 26.947 102.417 26.648C102.877 26.349 103.237 25.9465 103.498 25.4405C103.759 24.9268 103.889 24.3633 103.889 23.75C103.889 23.129 103.759 22.5655 103.498 22.0595C103.237 21.5458 102.873 21.1395 102.406 20.8405C101.946 20.5415 101.42 20.392 100.83 20.392C100.24 20.392 99.6993 20.5453 99.2086 20.852C98.7256 21.151 98.3385 21.5535 98.0471 22.0595C97.7635 22.5655 97.6216 23.129 97.6216 23.75C97.6216 24.371 97.7673 24.9345 98.0586 25.4405C98.35 25.9465 98.7371 26.349 99.2201 26.648C99.7108 26.947 100.247 27.0965 100.83 27.0965ZM109.217 29.5L109.205 18H112.011L112.023 19.0235C112.414 18.6095 112.881 18.2837 113.426 18.046C113.97 17.8007 114.557 17.678 115.185 17.678C115.607 17.678 116.029 17.7393 116.45 17.862L115.346 20.691C115.055 20.576 114.764 20.5185 114.472 20.5185C114.02 20.5185 113.606 20.6297 113.23 20.852C112.862 21.0667 112.567 21.3618 112.345 21.7375C112.13 22.1055 112.023 22.5157 112.023 22.968V29.5H109.217ZM135.77 13.4V16.206H130.848V29.5H128.042V16.206H123.12V13.4H135.77ZM144.987 18H147.793V29.5H144.987L144.86 28.074C144.546 28.5877 144.128 29.0055 143.607 29.3275C143.093 29.6418 142.483 29.799 141.778 29.799C140.927 29.799 140.13 29.638 139.386 29.316C138.642 28.994 137.987 28.5493 137.42 27.982C136.86 27.4147 136.419 26.7592 136.097 26.0155C135.783 25.2718 135.626 24.4745 135.626 23.6235C135.626 22.8032 135.775 22.0327 136.074 21.312C136.381 20.5913 136.806 19.9588 137.351 19.4145C137.895 18.8702 138.524 18.4447 139.237 18.138C139.95 17.8313 140.716 17.678 141.537 17.678C142.296 17.678 142.974 17.8467 143.572 18.184C144.178 18.5213 144.691 18.9507 145.113 19.472L144.987 18ZM141.709 27.0965C142.307 27.0965 142.836 26.947 143.296 26.648C143.756 26.349 144.116 25.9465 144.377 25.4405C144.638 24.9268 144.768 24.3633 144.768 23.75C144.768 23.129 144.638 22.5655 144.377 22.0595C144.116 21.5458 143.752 21.1395 143.285 20.8405C142.825 20.5415 142.299 20.392 141.709 20.392C141.119 20.392 140.578 20.5453 140.088 20.852C139.605 21.151 139.217 21.5535 138.926 22.0595C138.642 22.5655 138.501 23.129 138.501 23.75C138.501 24.371 138.646 24.9345 138.938 25.4405C139.229 25.9465 139.616 26.349 140.099 26.648C140.59 26.947 141.126 27.0965 141.709 27.0965ZM150.151 29.5V12.25H152.957V29.5H150.151ZM160.602 29.799C159.544 29.799 158.578 29.5268 157.704 28.9825C156.838 28.4382 156.144 27.706 155.623 26.786C155.109 25.866 154.852 24.8502 154.852 23.7385C154.852 22.9028 155.002 22.1208 155.301 21.3925C155.6 20.6565 156.01 20.0125 156.531 19.4605C157.06 18.9008 157.673 18.4638 158.371 18.1495C159.069 17.8352 159.812 17.678 160.602 17.678C161.499 17.678 162.319 17.8697 163.063 18.253C163.814 18.6287 164.451 19.1462 164.972 19.8055C165.493 20.4648 165.873 21.2162 166.111 22.0595C166.348 22.9028 166.402 23.7845 166.272 24.7045H157.865C157.972 25.1338 158.149 25.521 158.394 25.866C158.639 26.2033 158.95 26.4755 159.326 26.6825C159.701 26.8818 160.127 26.9853 160.602 26.993C161.093 27.0007 161.537 26.8857 161.936 26.648C162.342 26.4027 162.68 26.073 162.948 25.659L165.812 26.326C165.344 27.3457 164.646 28.1813 163.719 28.833C162.791 29.477 161.752 29.799 160.602 29.799ZM157.773 22.6H163.431C163.347 22.14 163.167 21.726 162.891 21.358C162.622 20.9823 162.289 20.6833 161.89 20.461C161.491 20.2387 161.062 20.1275 160.602 20.1275C160.142 20.1275 159.717 20.2387 159.326 20.461C158.935 20.6757 158.601 20.9708 158.325 21.3465C158.057 21.7145 157.873 22.1323 157.773 22.6ZM178.677 22.232V29.5H175.871V22.968C175.871 22.5157 175.76 22.1055 175.537 21.7375C175.315 21.3618 175.016 21.0667 174.64 20.852C174.272 20.6297 173.862 20.5185 173.41 20.5185C172.957 20.5185 172.543 20.6297 172.168 20.852C171.8 21.0667 171.505 21.3618 171.282 21.7375C171.068 22.1055 170.96 22.5157 170.96 22.968V29.5H168.154L168.143 18H170.949L170.96 19.0235C171.351 18.6095 171.819 18.2837 172.363 18.046C172.908 17.8007 173.494 17.678 174.123 17.678C174.958 17.678 175.721 17.885 176.411 18.299C177.101 18.7053 177.649 19.2535 178.056 19.9435C178.47 20.6258 178.677 21.3887 178.677 22.232ZM187.132 20.806H184.901V29.5H182.095V20.806H180.393V18H182.095V14.389H184.901V18H187.132V20.806Z" fill="#D5F036"/>
<path d="M75.9585 47.669C75.4732 47.669 75.003 47.5932 74.548 47.4415C74.0973 47.2898 73.703 47.0732 73.365 46.7915C73.027 46.5098 72.7887 46.174 72.65 45.784L73.5015 45.4655C73.5968 45.7342 73.7702 45.966 74.0215 46.161C74.2772 46.3517 74.574 46.499 74.912 46.603C75.2543 46.707 75.6032 46.759 75.9585 46.759C76.3745 46.759 76.7623 46.6897 77.122 46.551C77.4817 46.4123 77.772 46.2195 77.993 45.9725C78.214 45.7212 78.3245 45.4265 78.3245 45.0885C78.3245 44.7462 78.2097 44.4645 77.98 44.2435C77.7503 44.0225 77.4535 43.8492 77.0895 43.7235C76.7298 43.5935 76.3528 43.4938 75.9585 43.4245C75.3388 43.3162 74.782 43.1688 74.288 42.9825C73.7983 42.7962 73.4105 42.534 73.1245 42.196C72.8385 41.8537 72.6955 41.403 72.6955 40.844C72.6955 40.3197 72.8472 39.8647 73.1505 39.479C73.4538 39.0933 73.8525 38.7943 74.3465 38.582C74.8448 38.3697 75.3822 38.2635 75.9585 38.2635C76.4308 38.2635 76.8923 38.3372 77.343 38.4845C77.7937 38.6318 78.1902 38.8463 78.5325 39.128C78.8792 39.4097 79.1283 39.7542 79.28 40.1615L78.4155 40.4735C78.3202 40.2005 78.1447 39.9687 77.889 39.778C77.6377 39.583 77.343 39.4357 77.005 39.336C76.667 39.232 76.3182 39.18 75.9585 39.18C75.5468 39.1757 75.1612 39.245 74.8015 39.388C74.4462 39.5267 74.158 39.7217 73.937 39.973C73.716 40.22 73.6055 40.5103 73.6055 40.844C73.6055 41.234 73.7073 41.5352 73.911 41.7475C74.119 41.9555 74.4007 42.1115 74.756 42.2155C75.1113 42.3195 75.5122 42.4127 75.9585 42.495C76.5392 42.5947 77.0787 42.7507 77.577 42.963C78.0753 43.171 78.4762 43.4505 78.7795 43.8015C79.0828 44.1482 79.2345 44.5772 79.2345 45.0885C79.2345 45.6085 79.0828 46.0635 78.7795 46.4535C78.4762 46.8392 78.0753 47.1382 77.577 47.3505C77.083 47.5628 76.5435 47.669 75.9585 47.669ZM86.4714 43.4765V47.5H85.5614V43.6585C85.5614 43.3032 85.4748 42.9803 85.3014 42.69C85.1281 42.3997 84.8963 42.1678 84.6059 41.9945C84.3156 41.8212 83.9928 41.7345 83.6374 41.7345C83.2864 41.7345 82.9636 41.8212 82.6689 41.9945C82.3786 42.1678 82.1468 42.3997 81.9734 42.69C81.8001 42.9803 81.7134 43.3032 81.7134 43.6585V47.5H80.8034V37.75H81.7134V41.897C81.9431 41.5677 82.2421 41.3055 82.6104 41.1105C82.9788 40.9155 83.3796 40.818 83.8129 40.818C84.3026 40.818 84.7489 40.9372 85.1519 41.1755C85.5549 41.4138 85.8756 41.7345 86.1139 42.1375C86.3523 42.5405 86.4714 42.9868 86.4714 43.4765ZM90.5062 47.669C89.9082 47.669 89.3622 47.5152 88.8682 47.2075C88.3785 46.8998 87.9864 46.4882 87.6917 45.9725C87.4014 45.4525 87.2562 44.8783 87.2562 44.25C87.2562 43.7733 87.3407 43.3292 87.5097 42.9175C87.6787 42.5015 87.9105 42.1375 88.2052 41.8255C88.5042 41.5092 88.8509 41.2622 89.2452 41.0845C89.6395 40.9068 90.0599 40.818 90.5062 40.818C91.1042 40.818 91.648 40.9718 92.1377 41.2795C92.6317 41.5872 93.0239 42.001 93.3142 42.521C93.6089 43.041 93.7562 43.6173 93.7562 44.25C93.7562 44.7223 93.6717 45.1643 93.5027 45.576C93.3337 45.9877 93.0997 46.3517 92.8007 46.668C92.506 46.98 92.1615 47.2248 91.7672 47.4025C91.3772 47.5802 90.9569 47.669 90.5062 47.669ZM90.5062 46.759C90.9482 46.759 91.3447 46.6442 91.6957 46.4145C92.051 46.1805 92.3305 45.8728 92.5342 45.4915C92.7422 45.1102 92.8462 44.6963 92.8462 44.25C92.8462 43.795 92.7422 43.3768 92.5342 42.9955C92.3262 42.6098 92.0445 42.3022 91.6892 42.0725C91.3382 41.8428 90.9439 41.728 90.5062 41.728C90.0642 41.728 89.6655 41.845 89.3102 42.079C88.9592 42.3087 88.6797 42.6142 88.4717 42.9955C88.268 43.3768 88.1662 43.795 88.1662 44.25C88.1662 44.718 88.2724 45.1427 88.4847 45.524C88.697 45.901 88.9809 46.2022 89.3362 46.4275C89.6915 46.6485 90.0815 46.759 90.5062 46.759ZM97.3014 47.5H96.3654L94.1879 41H95.0784L96.8464 46.239L98.6014 41H99.5634L101.318 46.239L103.073 41H103.97L101.793 47.5H100.85L99.0694 42.209L97.3014 47.5ZM110.147 37.75H111.057V47.5H110.147V46.2845C109.922 46.7005 109.612 47.0363 109.218 47.292C108.828 47.5433 108.364 47.669 107.827 47.669C107.354 47.669 106.912 47.5802 106.501 47.4025C106.089 47.2248 105.725 46.98 105.409 46.668C105.097 46.3517 104.852 45.9877 104.674 45.576C104.496 45.1643 104.408 44.7223 104.408 44.25C104.408 43.7777 104.496 43.3357 104.674 42.924C104.852 42.508 105.097 42.144 105.409 41.832C105.725 41.5157 106.089 41.2687 106.501 41.091C106.912 40.9133 107.354 40.8245 107.827 40.8245C108.364 40.8245 108.828 40.9523 109.218 41.208C109.612 41.4593 109.922 41.7908 110.147 42.2025V37.75ZM107.833 46.785C108.297 46.785 108.695 46.6723 109.029 46.447C109.363 46.2173 109.618 45.9097 109.796 45.524C109.978 45.1383 110.069 44.7137 110.069 44.25C110.069 43.7733 109.978 43.3443 109.796 42.963C109.614 42.5773 109.356 42.2718 109.023 42.0465C108.689 41.8212 108.292 41.7085 107.833 41.7085C107.374 41.7085 106.956 41.8233 106.579 42.053C106.202 42.2783 105.9 42.5838 105.675 42.9695C105.45 43.3552 105.337 43.782 105.337 44.25C105.337 44.7223 105.452 45.1513 105.682 45.537C105.911 45.9183 106.215 46.2217 106.592 46.447C106.973 46.6723 107.387 46.785 107.833 46.785ZM115.427 47.669C114.829 47.669 114.283 47.5152 113.789 47.2075C113.299 46.8998 112.907 46.4882 112.613 45.9725C112.322 45.4525 112.177 44.8783 112.177 44.25C112.177 43.7733 112.262 43.3292 112.431 42.9175C112.6 42.5015 112.831 42.1375 113.126 41.8255C113.425 41.5092 113.772 41.2622 114.166 41.0845C114.56 40.9068 114.981 40.818 115.427 40.818C116.025 40.818 116.569 40.9718 117.059 41.2795C117.553 41.5872 117.945 42.001 118.235 42.521C118.53 43.041 118.677 43.6173 118.677 44.25C118.677 44.7223 118.593 45.1643 118.424 45.576C118.255 45.9877 118.021 46.3517 117.722 46.668C117.427 46.98 117.082 47.2248 116.688 47.4025C116.298 47.5802 115.878 47.669 115.427 47.669ZM115.427 46.759C115.869 46.759 116.266 46.6442 116.617 46.4145C116.972 46.1805 117.251 45.8728 117.455 45.4915C117.663 45.1102 117.767 44.6963 117.767 44.25C117.767 43.795 117.663 43.3768 117.455 42.9955C117.247 42.6098 116.965 42.3022 116.61 42.0725C116.259 41.8428 115.865 41.728 115.427 41.728C114.985 41.728 114.586 41.845 114.231 42.079C113.88 42.3087 113.601 42.6142 113.393 42.9955C113.189 43.3768 113.087 43.795 113.087 44.25C113.087 44.718 113.193 45.1427 113.406 45.524C113.618 45.901 113.902 46.2022 114.257 46.4275C114.612 46.6485 115.002 46.759 115.427 46.759ZM122.222 47.5H121.286L119.109 41H119.999L121.767 46.239L123.522 41H124.484L126.239 46.239L127.994 41H128.891L126.714 47.5H125.771L123.99 42.209L122.222 47.5ZM135.64 43.4765V47.5H134.73V43.6585C134.73 43.3032 134.644 42.9803 134.47 42.69C134.297 42.3997 134.065 42.1678 133.775 41.9945C133.485 41.8212 133.162 41.7345 132.806 41.7345C132.455 41.7345 132.133 41.8212 131.838 41.9945C131.548 42.1678 131.316 42.3997 131.142 42.69C130.969 42.9803 130.882 43.3032 130.882 43.6585V47.5H129.972V41H130.882V41.897C131.112 41.5677 131.411 41.3055 131.779 41.1105C132.148 40.9155 132.549 40.818 132.982 40.818C133.472 40.818 133.918 40.9372 134.321 41.1755C134.724 41.4138 135.045 41.7345 135.283 42.1375C135.521 42.5405 135.64 42.9868 135.64 43.4765Z" fill="white"/>
<defs>
<clipPath id="clip0_4280_3074">
<rect width="58" height="58" fill="white"/>
</clipPath>
</defs>
</svg>
