<svg width="10" height="10" viewBox="0 0 10 10" fill="none" xmlns="http://www.w3.org/2000/svg">
<g clip-path="url(#clip0_4280_3344)">
<path d="M10.0097 2.75166C9.9636 2.57508 9.89005 2.41658 9.74135 2.2988C9.49221 2.10141 9.13041 2.09727 8.88085 2.29621C8.83255 2.33471 8.78713 2.37727 8.74341 2.42099C7.52552 3.63838 6.30799 4.8561 5.09074 6.0741C5.0633 6.10158 5.03957 6.13277 4.98427 6.1968C4.95549 6.14785 4.94171 6.10796 4.91488 6.08108C3.6891 4.85313 2.46169 3.62685 1.23588 2.39894C1.01977 2.18246 0.772407 2.09185 0.471963 2.18463C0.025407 2.32255 -0.155815 2.89241 0.129379 3.26252C0.161129 3.30374 0.19574 3.34321 0.232518 3.38002C1.64352 4.79171 3.05471 6.20319 4.46644 7.61419C4.73027 7.87788 5.05816 7.93191 5.35574 7.7566C5.42763 7.71424 5.49155 7.65505 5.5511 7.59555C6.92646 6.22199 8.29991 4.84655 9.67627 3.47402C9.8288 3.32191 9.96488 3.16497 10.0098 2.94735C10.0097 2.88213 10.0097 2.81688 10.0097 2.75166Z" fill="#D5F036"/>
</g>
<defs>
<clipPath id="clip0_4280_3344">
<rect width="10" height="10" fill="white" transform="matrix(-4.37114e-08 1 1 4.37114e-08 0 0)"/>
</clipPath>
</defs>
</svg>
