<svg width="9" height="9" viewBox="0 0 9 9" fill="none" xmlns="http://www.w3.org/2000/svg">
<g clip-path="url(#clip0_4280_3129)">
<path d="M3.91113 1.17822L4.30137 0.787988C4.4666 0.622754 4.73379 0.622754 4.89727 0.787988L8.31445 4.20342C8.47969 4.36865 8.47969 4.63584 8.31445 4.79932L4.89727 8.2165C4.73203 8.38174 4.46484 8.38174 4.30137 8.2165L3.91113 7.82627C3.74414 7.65928 3.74766 7.38682 3.91816 7.22334L6.03633 5.20537H0.984375C0.750586 5.20537 0.5625 5.01728 0.5625 4.7835V4.221C0.5625 3.98721 0.750586 3.79912 0.984375 3.79912H6.03633L3.91816 1.78115C3.7459 1.61768 3.74238 1.34521 3.91113 1.17822Z" fill="white"/>
</g>
<defs>
<clipPath id="clip0_4280_3129">
<rect width="9" height="9" fill="white"/>
</clipPath>
</defs>
</svg>
