<svg width="10" height="10" viewBox="0 0 10 10" fill="none" xmlns="http://www.w3.org/2000/svg">
<g clip-path="url(#clip0_4280_3334)">
<path d="M10.0097 7.24834C9.9636 7.42492 9.89005 7.58342 9.74135 7.7012C9.49221 7.89859 9.13041 7.90273 8.88085 7.70379C8.83255 7.66529 8.78713 7.62273 8.74341 7.57901C7.52552 6.36162 6.30799 5.1439 5.09074 3.9259C5.0633 3.89842 5.03957 3.86723 4.98427 3.8032C4.95549 3.85215 4.94171 3.89204 4.91488 3.91892C3.6891 5.14687 2.46169 6.37315 1.23588 7.60106C1.01977 7.81754 0.772407 7.90815 0.471963 7.81537C0.025407 7.67745 -0.155815 7.10759 0.129379 6.73748C0.161129 6.69626 0.19574 6.65679 0.232518 6.61998C1.64352 5.20829 3.05471 3.79681 4.46644 2.38581C4.73027 2.12212 5.05816 2.06809 5.35574 2.2434C5.42763 2.28576 5.49155 2.34495 5.5511 2.40445C6.92646 3.77801 8.29991 5.15345 9.67627 6.52598C9.8288 6.67809 9.96488 6.83503 10.0098 7.05265C10.0097 7.11787 10.0097 7.18312 10.0097 7.24834Z" fill="#D5F036"/>
</g>
<defs>
<clipPath id="clip0_4280_3334">
<rect width="10" height="10" fill="white" transform="translate(0 10) rotate(-90)"/>
</clipPath>
</defs>
</svg>
