<svg width="15" height="15" viewBox="0 0 15 15" fill="none" xmlns="http://www.w3.org/2000/svg">
<path d="M13.4581 4.4424C13.4676 4.57564 13.4676 4.70892 13.4676 4.84216C13.4676 8.90622 10.3744 13.589 4.72081 13.589C2.97905 13.589 1.36104 13.0845 0 12.2089C0.247471 12.2375 0.485391 12.247 0.742383 12.247C2.17954 12.247 3.50253 11.7616 4.559 10.9335C3.20748 10.905 2.07486 10.0198 1.68463 8.80154C1.875 8.83008 2.06534 8.84912 2.26523 8.84912C2.54124 8.84912 2.81728 8.81104 3.07424 8.74444C1.66561 8.45889 0.609111 7.22159 0.609111 5.7273V5.68925C1.01836 5.91768 1.49429 6.06044 1.99869 6.07945C1.17064 5.52741 0.628154 4.58517 0.628154 3.51917C0.628154 2.94812 0.78041 2.42464 1.04692 1.96778C2.56025 3.83326 4.83501 5.05151 7.38574 5.18479C7.33816 4.95636 7.3096 4.71844 7.3096 4.48049C7.3096 2.78631 8.68017 1.40625 10.3838 1.40625C11.269 1.40625 12.0685 1.77744 12.63 2.37706C13.3248 2.24382 13.991 1.98683 14.5812 1.63468C14.3527 2.34853 13.8673 2.94814 13.2296 3.32883C13.8483 3.26224 14.4479 3.09088 14.9999 2.85296C14.5812 3.46207 14.0577 4.00456 13.4581 4.4424Z" fill="white"/>
</svg>
