<svg width="24" height="24" viewBox="0 0 24 24" fill="none" xmlns="http://www.w3.org/2000/svg">
<path d="M15.8771 4.88377L16.5785 9.43009C16.6184 9.72159 16.7502 9.9928 16.9546 10.2045L20.0951 13.5673C20.2775 13.7618 20.4033 14.0025 20.4588 14.2633C20.5144 14.5241 20.4977 14.7951 20.4104 15.047C20.3232 15.2989 20.1687 15.5222 19.9637 15.6928C19.7588 15.8633 19.5111 15.9746 19.2474 16.0147L14.6998 16.7146C14.4071 16.7629 14.1357 16.8981 13.921 17.1027L10.5579 20.2413C10.3633 20.4236 10.1226 20.5493 9.86177 20.6048C9.60092 20.6603 9.32983 20.6435 9.0778 20.5562C8.82577 20.4689 8.60238 20.3144 8.43173 20.1095C8.26107 19.9045 8.14964 19.6569 8.1095 19.3933L7.40818 14.847C7.3687 14.5563 7.24347 14.2839 7.04848 14.0646L3.90379 10.714C3.72138 10.5195 3.59561 10.2788 3.54004 10.018C3.48447 9.75722 3.5012 9.48625 3.58846 9.23432C3.67572 8.98239 3.83018 8.75909 4.03514 8.58855C4.24011 8.418 4.4878 8.30669 4.75147 8.26662L9.29907 7.56666C9.59065 7.52677 9.86194 7.39513 10.0737 7.1908L13.4367 4.05222C13.6304 3.87236 13.8692 3.7483 14.1277 3.69321C14.3863 3.63812 14.6549 3.65406 14.9052 3.73934C15.1554 3.82461 15.3779 3.97604 15.5491 4.17754C15.7202 4.37904 15.8336 4.62308 15.8771 4.88377Z" fill="white"/>
</svg>
